<svg width="100" height="100" viewBox="0 0 100 100" fill="none" xmlns="http://www.w3.org/2000/svg">
<g filter="url(#filter0_d_2_139)">
<circle cx="50" cy="40" r="30" fill="#52A7E8"/>
</g>
<path d="M58.3027 34.56C57.8093 35.28 57.2093 35.9 56.5027 36.42V36.88C56.5027 37.8533 56.3627 38.82 56.0827 39.78C55.8027 40.74 55.376 41.6667 54.8027 42.56C54.2293 43.4533 53.5427 44.2333 52.7427 44.9C51.9427 45.5667 50.9827 46.1133 49.8627 46.54C48.7427 46.9667 47.536 47.1667 46.2427 47.14C44.2293 47.14 42.3893 46.6 40.7227 45.52C40.976 45.5467 41.2627 45.56 41.5827 45.56C43.2627 45.56 44.756 45.0467 46.0627 44.02C45.276 44.0067 44.576 43.7667 43.9627 43.3C43.3493 42.8333 42.9227 42.24 42.6827 41.52C42.936 41.56 43.1627 41.58 43.3627 41.58C43.6827 41.58 44.0027 41.54 44.3227 41.46C43.4827 41.2867 42.7893 40.8733 42.2427 40.22C41.696 39.5667 41.4227 38.8 41.4227 37.92V37.88C41.9293 38.16 42.476 38.3133 43.0627 38.34C42.5693 38.0067 42.176 37.58 41.8827 37.06C41.5893 36.54 41.4427 35.96 41.4427 35.32C41.4427 34.68 41.6093 34.08 41.9427 33.52C42.8493 34.6267 43.9427 35.5133 45.2227 36.18C46.5027 36.8467 47.8893 37.2133 49.3827 37.28C49.316 37 49.2827 36.7267 49.2827 36.46C49.2827 35.46 49.636 34.6133 50.3427 33.92C51.0493 33.2267 51.896 32.8733 52.8827 32.86C53.936 32.86 54.816 33.24 55.5227 34C56.336 33.84 57.1027 33.5467 57.8227 33.12C57.5427 33.9733 57.0093 34.64 56.2227 35.12C56.916 35.04 57.6093 34.8533 58.3027 34.56Z" fill="white"/>
<defs>
<filter id="filter0_d_2_139" x="0" y="0" width="100" height="100" filterUnits="userSpaceOnUse" color-interpolation-filters="sRGB">
<feFlood flood-opacity="0" result="BackgroundImageFix"/>
<feColorMatrix in="SourceAlpha" type="matrix" values="0 0 0 0 0 0 0 0 0 0 0 0 0 0 0 0 0 0 127 0" result="hardAlpha"/>
<feOffset dy="10"/>
<feGaussianBlur stdDeviation="10"/>
<feComposite in2="hardAlpha" operator="out"/>
<feColorMatrix type="matrix" values="0 0 0 0 0 0 0 0 0 0 0 0 0 0 0 0 0 0 0.1 0"/>
<feBlend mode="normal" in2="BackgroundImageFix" result="effect1_dropShadow_2_139"/>
<feBlend mode="normal" in="SourceGraphic" in2="effect1_dropShadow_2_139" result="shape"/>
</filter>
</defs>
</svg>
