<svg width="100" height="100" viewBox="0 0 100 100" fill="none" xmlns="http://www.w3.org/2000/svg">
<g filter="url(#filter0_d_2_143)">
<circle cx="50" cy="40" r="30" fill="url(#paint0_radial_2_143)"/>
</g>
<path d="M51.8458 40C51.8458 39.2133 51.5724 38.54 51.0258 37.98C50.4791 37.42 49.8058 37.14 49.0058 37.14C48.2058 37.14 47.5324 37.42 46.9858 37.98C46.4391 38.54 46.1591 39.2133 46.1458 40C46.1324 40.7867 46.4124 41.46 46.9858 42.02C47.5591 42.58 48.2324 42.86 49.0058 42.86C49.7791 42.86 50.4524 42.58 51.0258 42.02C51.5991 41.46 51.8724 40.7867 51.8458 40ZM53.3858 40C53.3858 41.2133 52.9591 42.2533 52.1058 43.12C51.2524 43.9867 50.2191 44.4133 49.0058 44.4C47.7924 44.3867 46.7524 43.96 45.8858 43.12C45.0191 42.28 44.5924 41.24 44.6058 40C44.6191 38.76 45.0458 37.72 45.8858 36.88C46.7258 36.04 47.7658 35.6133 49.0058 35.6C50.2458 35.5867 51.2791 36.0133 52.1058 36.88C52.9324 37.7467 53.3591 38.7867 53.3858 40ZM54.6058 35.42C54.6058 35.7 54.5058 35.94 54.3058 36.14C54.1058 36.34 53.8591 36.44 53.5658 36.44C53.2724 36.44 53.0324 36.34 52.8458 36.14C52.6591 35.94 52.5591 35.7 52.5458 35.42C52.5324 35.14 52.6324 34.9 52.8458 34.7C53.0591 34.5 53.2991 34.4 53.5658 34.4C53.8324 34.4 54.0791 34.5 54.3058 34.7C54.5324 34.9 54.6324 35.14 54.6058 35.42ZM49.0058 32.96C48.9524 32.96 48.6658 32.96 48.1458 32.96H46.9658C46.6991 32.96 46.3391 32.9733 45.8858 33C45.4324 33.0267 45.0524 33.06 44.7458 33.1C44.4391 33.14 44.1724 33.2133 43.9458 33.32C43.5724 33.4667 43.2458 33.68 42.9658 33.96C42.6858 34.24 42.4658 34.5667 42.3058 34.94C42.2258 35.1533 42.1591 35.42 42.1058 35.74C42.0524 36.06 42.0124 36.4467 41.9858 36.9C41.9591 37.3533 41.9524 37.7067 41.9658 37.96C41.9791 38.2133 41.9791 38.6067 41.9658 39.14C41.9524 39.6733 41.9524 39.96 41.9658 40C41.9791 40.04 41.9791 40.3267 41.9658 40.86C41.9524 41.3933 41.9524 41.7867 41.9658 42.04C41.9791 42.2933 41.9858 42.6467 41.9858 43.1C41.9858 43.5533 42.0258 43.94 42.1058 44.26L42.3058 45.06C42.4658 45.4333 42.6858 45.76 42.9658 46.04C43.2458 46.32 43.5724 46.5333 43.9458 46.68C44.1591 46.76 44.4258 46.8333 44.7458 46.9C45.0658 46.9667 45.4458 47 45.8858 47C46.3258 47 46.6858 47.0133 46.9658 47.04C47.2458 47.0667 47.6391 47.0667 48.1458 47.04C48.6524 47.0133 48.9391 47.0133 49.0058 47.04C49.0724 47.0667 49.3524 47.0667 49.8458 47.04C50.3391 47.0133 50.7324 47.0133 51.0258 47.04C51.3191 47.0667 51.6791 47.0533 52.1058 47C52.5324 46.9467 52.9191 46.9133 53.2658 46.9C53.6124 46.8867 53.8724 46.8133 54.0458 46.68C54.4191 46.5333 54.7524 46.32 55.0458 46.04C55.3391 45.76 55.5524 45.4333 55.6858 45.06C55.7658 44.8467 55.8324 44.58 55.8858 44.26C55.9391 43.94 55.9791 43.5533 56.0058 43.1C56.0324 42.6467 56.0391 42.2933 56.0258 42.04C56.0124 41.7867 56.0124 41.3933 56.0258 40.86C56.0391 40.3267 56.0391 40.04 56.0258 40C56.0124 39.96 56.0124 39.6733 56.0258 39.14C56.0391 38.6067 56.0391 38.2133 56.0258 37.96C56.0124 37.7067 56.0058 37.3533 56.0058 36.9C56.0058 36.4467 55.9658 36.06 55.8858 35.74L55.6858 34.94C55.5391 34.5667 55.3258 34.24 55.0458 33.96C54.7658 33.68 54.4324 33.4667 54.0458 33.32C53.8324 33.24 53.5724 33.1667 53.2658 33.1C52.9591 33.0333 52.5724 33 52.1058 33C51.6391 33 51.2791 32.9867 51.0258 32.96C50.7724 32.9333 50.3791 32.9333 49.8458 32.96C49.3124 32.9867 49.0324 32.9867 49.0058 32.96ZM57.5658 40C57.5658 41.7067 57.5458 42.8867 57.5058 43.54C57.4391 45.0867 56.9791 46.2867 56.1258 47.14C55.2724 47.9933 54.0791 48.4533 52.5458 48.52C51.8791 48.56 50.6991 48.58 49.0058 48.58C47.3124 48.58 46.1324 48.56 45.4658 48.52C43.9191 48.44 42.7191 47.98 41.8658 47.14C41.0124 46.3 40.5524 45.1 40.4858 43.54C40.4458 42.8867 40.4258 41.7067 40.4258 40C40.4258 38.2933 40.4458 37.1133 40.4858 36.46C40.5524 34.9133 41.0124 33.7133 41.8658 32.86C42.7191 32.0067 43.9191 31.5467 45.4658 31.48C46.1191 31.44 47.2991 31.42 49.0058 31.42C50.7124 31.42 51.8924 31.44 52.5458 31.48C54.0924 31.56 55.2858 32.02 56.1258 32.86C56.9658 33.7 57.4258 34.9 57.5058 36.46C57.5458 37.1133 57.5658 38.2933 57.5658 40Z" fill="white"/>
<defs>
<filter id="filter0_d_2_143" x="0" y="0" width="100" height="100" filterUnits="userSpaceOnUse" color-interpolation-filters="sRGB">
<feFlood flood-opacity="0" result="BackgroundImageFix"/>
<feColorMatrix in="SourceAlpha" type="matrix" values="0 0 0 0 0 0 0 0 0 0 0 0 0 0 0 0 0 0 127 0" result="hardAlpha"/>
<feOffset dy="10"/>
<feGaussianBlur stdDeviation="10"/>
<feComposite in2="hardAlpha" operator="out"/>
<feColorMatrix type="matrix" values="0 0 0 0 0 0 0 0 0 0 0 0 0 0 0 0 0 0 0.1 0"/>
<feBlend mode="normal" in2="BackgroundImageFix" result="effect1_dropShadow_2_143"/>
<feBlend mode="normal" in="SourceGraphic" in2="effect1_dropShadow_2_143" result="shape"/>
</filter>
<radialGradient id="paint0_radial_2_143" cx="0" cy="0" r="1" gradientUnits="userSpaceOnUse" gradientTransform="translate(37 59.5) rotate(-64.1336) scale(55.0114 78.2284)">
<stop stop-color="#F0C95E"/>
<stop offset="0.619792" stop-color="#CD2E72"/>
<stop offset="1" stop-color="#644DC0"/>
</radialGradient>
</defs>
</svg>
