<svg width="100" height="100" viewBox="0 0 100 100" fill="none" xmlns="http://www.w3.org/2000/svg">
<g filter="url(#filter0_d_2_246)">
<circle cx="50" cy="40" r="30" fill="white"/>
</g>
<path d="M54.6111 35.8839C53.9263 35.4528 53.362 34.8552 52.971 34.1468C52.5799 33.4385 52.3749 32.6425 52.375 31.8333H40.5044C40.3898 31.8351 40.2759 31.8523 40.1658 31.8844L49.3978 41.0781L54.6111 35.8839Z" fill="black"/>
<path d="M57.1666 36.625C56.7343 36.6212 56.3045 36.5589 55.8889 36.4397L50.3241 41.9853C50.0847 42.2233 49.7609 42.3568 49.4233 42.3568C49.0857 42.3568 48.7619 42.2233 48.5225 41.9853L39.2778 32.7917C39.2494 32.8958 39.2344 33.0032 39.233 33.1111V45.8889C39.233 46.2278 39.3677 46.5528 39.6073 46.7924C39.8469 47.032 40.1719 47.1667 40.5108 47.1667H58.3997C58.7386 47.1667 59.0636 47.032 59.3032 46.7924C59.5429 46.5528 59.6775 46.2278 59.6775 45.8889V35.9158C58.9229 36.3815 58.0533 36.6271 57.1666 36.625ZM41.3861 45.8889H40.498V44.9753L45.1428 40.3689L46.0436 41.2697L41.3861 45.8889ZM58.3869 45.8889H57.4925L52.835 41.2697L53.7358 40.3689L58.3805 44.9753L58.3869 45.8889Z" fill="black"/>
<path d="M57.1667 35.0278C58.9309 35.0278 60.3611 33.5976 60.3611 31.8333C60.3611 30.0691 58.9309 28.6389 57.1667 28.6389C55.4024 28.6389 53.9722 30.0691 53.9722 31.8333C53.9722 33.5976 55.4024 35.0278 57.1667 35.0278Z" fill="#EB5757"/>
<defs>
<filter id="filter0_d_2_246" x="0" y="0" width="100" height="100" filterUnits="userSpaceOnUse" color-interpolation-filters="sRGB">
<feFlood flood-opacity="0" result="BackgroundImageFix"/>
<feColorMatrix in="SourceAlpha" type="matrix" values="0 0 0 0 0 0 0 0 0 0 0 0 0 0 0 0 0 0 127 0" result="hardAlpha"/>
<feOffset dy="10"/>
<feGaussianBlur stdDeviation="10"/>
<feComposite in2="hardAlpha" operator="out"/>
<feColorMatrix type="matrix" values="0 0 0 0 0 0 0 0 0 0 0 0 0 0 0 0 0 0 0.1 0"/>
<feBlend mode="normal" in2="BackgroundImageFix" result="effect1_dropShadow_2_246"/>
<feBlend mode="normal" in="SourceGraphic" in2="effect1_dropShadow_2_246" result="shape"/>
</filter>
</defs>
</svg>
