<svg width="84" height="56" viewBox="0 0 84 56" fill="none" xmlns="http://www.w3.org/2000/svg">
<path d="M18.8489 20.1555C17.9715 19.5523 16.8266 19.25 15.4142 19.25H9.94594C9.51294 19.25 9.27372 19.4666 9.22828 19.8992L7.00697 33.843C6.98389 33.9799 7.01815 34.1052 7.10945 34.219C7.20023 34.3331 7.31441 34.3898 7.45115 34.3898H10.0485C10.5041 34.3898 10.7545 34.1738 10.8005 33.7406L11.4155 29.9814C11.438 29.7992 11.5181 29.6511 11.6549 29.537C11.7915 29.4231 11.9624 29.3487 12.1675 29.3146C12.3725 29.2808 12.5659 29.2636 12.7485 29.2636C12.9306 29.2636 13.1469 29.2752 13.3979 29.2979C13.6483 29.3206 13.808 29.3317 13.8764 29.3317C15.8357 29.3317 17.3736 28.7796 18.4902 27.6742C19.6063 26.5694 20.165 25.0374 20.165 23.0774C20.165 21.7332 19.7259 20.7593 18.8489 20.1552V20.1555ZM16.0296 24.3424C15.9153 25.1399 15.6195 25.6637 15.141 25.9144C14.6625 26.1655 13.979 26.2904 13.0905 26.2904L11.9626 26.3244L12.5437 22.6675C12.5891 22.4171 12.7371 22.2918 12.9879 22.2918H13.6375C14.5484 22.2918 15.2095 22.4231 15.6197 22.6846C16.0296 22.9468 16.1663 23.4996 16.0296 24.3424Z" fill="#003087"/>
<path d="M76.5553 19.25H74.0265C73.7752 19.25 73.6273 19.3754 73.5821 19.6262L71.3606 33.8436L71.3264 33.9119C71.3264 34.0264 71.3719 34.1341 71.4633 34.2367C71.5539 34.3391 71.6684 34.3904 71.8049 34.3904H74.0609C74.4931 34.3904 74.7324 34.1743 74.7787 33.7411L77 19.7629V19.729C76.9999 19.4098 76.8513 19.2504 76.5553 19.2504V19.25Z" fill="#009CDE"/>
<path d="M46.002 24.7529C46.002 24.6392 45.9563 24.5308 45.8657 24.4285C45.7743 24.326 45.6717 24.2744 45.558 24.2744H42.9265C42.6754 24.2744 42.4703 24.3889 42.3111 24.6161L38.6885 29.9478L37.1847 24.8214C37.0702 24.4571 36.82 24.2744 36.4329 24.2744H33.8693C33.7551 24.2744 33.6526 24.3258 33.562 24.4285C33.4706 24.5308 33.4253 24.6394 33.4253 24.7529C33.4253 24.7987 33.6475 25.4706 34.0917 26.7693C34.5358 28.0684 35.0143 29.4697 35.527 30.9735C36.0397 32.4771 36.3072 33.2749 36.3301 33.3653C34.4617 35.9176 33.5279 37.2846 33.5279 37.4665C33.5279 37.763 33.6757 37.9109 33.9722 37.9109H36.6037C36.8542 37.9109 37.0592 37.7973 37.219 37.5693L45.9341 24.992C45.9793 24.9468 46.002 24.8675 46.002 24.7527V24.7529Z" fill="#003087"/>
<path d="M70.5067 24.2746H67.9093C67.59 24.2746 67.397 24.6507 67.3286 25.4027C66.7355 24.4916 65.654 24.0354 64.0815 24.0354C62.4411 24.0354 61.0454 24.6507 59.8951 25.8811C58.7443 27.1114 58.1693 28.5587 58.1693 30.2217C58.1693 31.5663 58.5622 32.637 59.3481 33.4342C60.1342 34.2322 61.1878 34.6304 62.5098 34.6304C63.1704 34.6304 63.8425 34.4935 64.526 34.2203C65.2095 33.9469 65.7444 33.5825 66.1325 33.1267C66.1325 33.1495 66.1092 33.2517 66.0642 33.4339C66.0181 33.6165 65.9957 33.7536 65.9957 33.844C65.9957 34.209 66.1434 34.3908 66.44 34.3908H68.7984C69.2307 34.3908 69.4817 34.1747 69.5498 33.7415L70.9512 24.8214C70.9737 24.6845 70.9396 24.5595 70.8487 24.4454C70.757 24.3318 70.6434 24.2746 70.5067 24.2746ZM66.0468 31.0077C65.4658 31.5774 64.7651 31.862 63.945 31.862C63.2839 31.862 62.749 31.68 62.3386 31.3153C61.9283 30.9515 61.7233 30.4502 61.7233 29.8115C61.7233 28.9691 62.0081 28.2565 62.578 27.6755C63.1468 27.0945 63.8538 26.8041 64.6968 26.8041C65.3342 26.8041 65.864 26.992 66.286 27.3678C66.707 27.7439 66.9185 28.2622 66.9185 28.9231C66.9183 29.7433 66.6278 30.4384 66.0468 31.0077Z" fill="#009CDE"/>
<path d="M31.6821 24.2746H29.0846C28.7651 24.2746 28.5719 24.6507 28.5035 25.4027C27.8883 24.4916 26.8059 24.0354 25.2567 24.0354C23.6162 24.0354 22.2205 24.6507 21.07 25.8811C19.9192 27.1114 19.3442 28.5587 19.3442 30.2217C19.3442 31.5663 19.7373 32.637 20.5234 33.4342C21.3094 34.2322 22.3629 34.6304 23.6846 34.6304C24.3222 34.6304 24.9834 34.4935 25.6668 34.2203C26.3503 33.9469 26.8971 33.5825 27.3073 33.1267C27.2159 33.3998 27.1705 33.6392 27.1705 33.844C27.1705 34.209 27.3185 34.3908 27.6148 34.3908H29.9729C30.4055 34.3908 30.6564 34.1747 30.7249 33.7415L32.126 24.8214C32.1485 24.6845 32.1144 24.5595 32.0235 24.4454C31.9323 24.3318 31.8186 24.2746 31.6821 24.2746ZM27.222 31.0246C26.6409 31.5835 25.9286 31.862 25.0861 31.862C24.4249 31.862 23.8952 31.68 23.4968 31.3153C23.0978 30.9515 22.8986 30.4502 22.8986 29.8115C22.8986 28.9691 23.1833 28.2565 23.7531 27.6755C24.3223 27.0945 25.0287 26.804 25.872 26.804C26.5097 26.804 27.0394 26.992 27.4613 27.3678C27.8825 27.7439 28.0936 28.2622 28.0936 28.9231C28.0934 29.7662 27.803 30.467 27.222 31.0246Z" fill="#003087"/>
<path d="M57.6736 20.1555C56.7963 19.5523 55.6517 19.25 54.2389 19.25H48.8048C48.349 19.25 48.0982 19.4666 48.0529 19.8992L45.8314 33.843C45.8083 33.9799 45.8426 34.1052 45.934 34.219C46.0244 34.3331 46.1389 34.3898 46.2756 34.3898H49.0779C49.3513 34.3898 49.5335 34.2419 49.6249 33.9457L50.2401 29.9814C50.2628 29.7992 50.3425 29.6511 50.4794 29.537C50.6162 29.4231 50.7868 29.3487 50.9921 29.3146C51.197 29.2808 51.3903 29.2636 51.573 29.2636C51.7552 29.2636 51.9715 29.2752 52.2223 29.2979C52.4728 29.3206 52.6328 29.3317 52.7007 29.3317C54.6604 29.3317 56.198 28.7796 57.3146 27.6742C58.4311 26.5694 58.9893 25.0374 58.9893 23.0774C58.9894 21.7332 58.5505 20.7592 57.6736 20.1552V20.1555ZM54.1706 25.7776C53.6693 26.1193 52.9173 26.2901 51.915 26.2901L50.8212 26.3243L51.4022 22.6673C51.4474 22.417 51.5955 22.2914 51.8464 22.2914H52.4614C52.9627 22.2914 53.3613 22.3143 53.658 22.3598C53.9536 22.4055 54.2389 22.5477 54.5123 22.7868C54.7859 23.0261 54.9224 23.3738 54.9224 23.8292C54.9224 24.7865 54.6715 25.4356 54.1706 25.7776Z" fill="#009CDE"/>
</svg>
