<svg width="85" height="77" viewBox="0 0 85 77" fill="none" xmlns="http://www.w3.org/2000/svg">
<path d="M35.4932 0.0567932H84.7116V2.9849V5.91298H59.9878H35.4932V0.0567932Z" fill="#FF0000" fill-opacity="0.5" stroke="black" stroke-width="0.134009"/>
<path d="M35.4932 35.3475H59.9855H84.7116V38.2756V41.2037H35.4932V35.3475Z" fill="#FF0000" fill-opacity="0.5" stroke="black" stroke-width="0.134009"/>
<path d="M35.4932 23.5585L60.0142 23.5973L84.7116 23.636V26.4864V29.3368L60.0142 29.3755L35.4932 29.4143" fill="#FF0000" fill-opacity="0.5"/>
<path d="M35.4932 23.5585L60.0142 23.5973L84.7116 23.636V26.4864V29.3368L60.0142 29.3755L35.4932 29.4143" stroke="black" stroke-width="0.134009"/>
<path d="M35.4932 11.9232H59.9878H84.7116V14.8128L84.7116 17.7024L60.4368 17.6576C47.0857 17.633 35.4932 17.706 35.4932 17.706V11.9232Z" fill="#FF0000" fill-opacity="0.5" stroke="black" stroke-width="0.134009"/>
<path d="M0.18573 50.1426V47.2145H42.4486H84.7115V50.1426V53.0706H42.4486H0.18573V50.1426Z" fill="#FF0000" fill-opacity="0.5" stroke="black" stroke-width="0.134009"/>
<path d="M0.18573 61.855V58.9268H42.4486H84.7115V61.855V64.7831H42.4486H0.18573V61.855Z" fill="#FF0000" fill-opacity="0.5" stroke="black" stroke-width="0.134009"/>
<path d="M0.18573 73.5673V70.7933H42.4486H84.7115V73.5673V76.3413H42.4486H0.18573V73.5673Z" fill="#FF0000" fill-opacity="0.5" stroke="black" stroke-width="0.134009"/>
</svg>
