<svg width="195" height="78" viewBox="0 0 195 78" fill="none" xmlns="http://www.w3.org/2000/svg">
<g clip-path="url(#clip0_2_62)">
<path d="M2.82586 0.360167C2.82586 0.360167 0.579788 -0.0242619 0.0574951 0.0573656L0.144192 44.9856C1.42295 46.3814 4.35067 48.5488 11.8772 51.9699C14.6712 53.2399 16.9664 55.3567 19.3723 57.0196C23.499 59.8718 27.1177 62.2249 28.112 62.7231C28.6613 62.9983 29.3725 63.4666 29.6923 63.764C30.0122 64.0614 30.9136 64.7959 31.6954 65.3961C32.4773 65.9962 33.3703 66.7216 33.6796 67.0083C34.0196 67.3233 44.2229 77.5874 44.2229 77.5874C46.2084 77.1414 45.7684 75.0148 46.306 75.0114C46.306 75.0114 44.047 80.1953 49.1353 76.5028C52.0077 73.5717 55.0951 69.557 57.9379 66.8051C62.2977 62.5844 66.4301 59.7027 71.0503 55.5096C73.7335 53.0744 76.4192 49.849 79.3255 47.5837C80.8478 46.2776 83.4789 45.455 84.541 44.8419C84.6534 44.777 84.7578 44.7148 84.8531 44.6548L84.7694 0.564664L75.3741 0.197908C62.0499 12.3493 54.6363 14.3725 50.4397 18.2832C49.072 19.5576 48.5101 21.8814 47.7998 24.4606C47.7998 24.4606 46.7401 25.4222 45.9883 26.5287C45.2428 27.6259 44.8065 28.8664 44.4875 29.2837C43.9484 29.9889 43.7709 27.8789 42.629 25.677C41.2464 23.011 39.089 22.367 37.5527 17.6192C36.7648 15.1844 21.5102 10.5488 15.2668 6.31715C12.0343 4.12627 7.74776 0.392859 2.82586 0.360133L2.82586 0.360167ZM23.2374 22.8682C24.6358 22.8844 26.2025 23.4044 27.8277 24.1216C32.1753 25.6125 33.9324 29.0208 37.2218 30.2977C39.0166 31.6778 41.4471 31.4001 44.0449 30.6857C44.7759 31.6951 45.1765 32.8702 49.0325 32.3121C53.209 30.4062 54.8217 27.4256 59.7059 25.3816C62.1716 24.3183 64.558 23.0163 67.4889 23.3527C72.3205 31.6359 70.5732 36.728 66.5822 40.3993C63.1275 43.6516 61.0064 45.0741 56.372 51.7256C53.5896 55.1149 50.3809 58.305 50.0894 58.8007C49.8392 59.226 49.4969 59.6274 49.3287 59.6921C49.1604 59.7569 48.3444 60.6544 47.5154 61.6871C45.7369 63.9026 45.7352 63.9036 45.2091 63.0357C45.0296 62.7395 39.9245 57.2594 39.9245 57.2594C39.9519 54.3362 33.5365 50.5233 31.2322 48.2966C29.1546 46.2889 23.8729 43.6596 22.4793 41.3353C21.4341 39.5919 18.3763 38.6291 18.2574 36.8548C18.0822 34.243 15.7106 34.8405 15.9589 33.703C16.7281 30.1802 18.3 26.5648 19.658 24.6361C20.6091 23.3392 21.839 22.8519 23.2374 22.8682ZM39.053 66.9047C39.0647 66.9022 39.0883 66.9107 39.1242 66.9307C40.267 67.5558 41.7429 68.2216 42.9489 68.3591C43.937 68.4718 44.7719 67.9895 44.8553 68.8692C45.1371 71.841 51.1325 66.7699 50.5869 67.577C49.9858 68.4661 47.3697 69.5579 46.0146 71.5391C45.6522 72.0691 45.8833 70.5901 44.6352 70.2227C41.3668 69.2605 38.8784 66.9332 39.053 66.9047H39.053Z" fill="#FFB380" fill-opacity="0.810409" stroke="black" stroke-width="0.401349"/>
<path d="M35.7755 41.2138H0.0575011L0.0574951 20.6358V0.0572205H35.7755V41.2138Z" fill="#0000FF" fill-opacity="0.5" stroke="black" stroke-width="0.135251"/>
<path d="M35.4932 0.0567932H84.7116V2.9849V5.91298H59.9878H35.4932V0.0567932Z" fill="#FF0000" fill-opacity="0.5" stroke="black" stroke-width="0.134009"/>
<path d="M35.4932 35.3475H59.9855H84.7116V38.2756V41.2037H35.4932V35.3475Z" fill="#FF0000" fill-opacity="0.5" stroke="black" stroke-width="0.134009"/>
<path d="M35.4932 23.5585L60.0142 23.5973L84.7116 23.636V26.4864V29.3368L60.0142 29.3755L35.4932 29.4143" fill="#FF0000" fill-opacity="0.5"/>
<path d="M35.4932 23.5585L60.0142 23.5973L84.7116 23.636V26.4864V29.3368L60.0142 29.3755L35.4932 29.4143" stroke="black" stroke-width="0.134009"/>
<path d="M35.4932 11.9232H59.9878H84.7116V14.8128L84.7116 17.7024L60.4368 17.6576C47.0857 17.633 35.4932 17.706 35.4932 17.706V11.9232Z" fill="#FF0000" fill-opacity="0.5" stroke="black" stroke-width="0.134009"/>
<path d="M0.18573 50.1426V47.2145H42.4486H84.7115V50.1426V53.0706H42.4486H0.18573V50.1426Z" fill="#FF0000" fill-opacity="0.5" stroke="black" stroke-width="0.134009"/>
<path d="M0.18573 61.855V58.9268H42.4486H84.7115V61.855V64.7831H42.4486H0.18573V61.855Z" fill="#FF0000" fill-opacity="0.5" stroke="black" stroke-width="0.134009"/>
<path d="M0.18573 73.5673V70.7933H42.4486H84.7115V73.5673V76.3413H42.4486H0.18573V73.5673Z" fill="#FF0000" fill-opacity="0.5" stroke="black" stroke-width="0.134009"/>
<path d="M2.78866 34.8897L1.90067 34.4203L1.01548 34.8951L1.18183 33.8946L0.462463 33.1886L1.45327 33.0397L1.89386 32.1285L2.33986 33.037L3.33153 33.1798L2.61637 33.8902L2.78866 34.8897Z" fill="white" stroke="black" stroke-width="0.161538"/>
<path d="M2.7037 9.6361L1.81571 9.16666L0.930518 9.6415L1.09687 8.641L0.377502 7.93498L1.36831 7.78606L1.8089 6.87488L2.2549 7.78336L3.24657 7.92623L2.53141 8.63663L2.7037 9.6361Z" fill="white" stroke="black" stroke-width="0.161538"/>
<path d="M2.78866 18.0497L1.90067 17.5803L1.01548 18.0551L1.18183 17.0546L0.462463 16.3486L1.45327 16.1997L1.89386 15.2885L2.33986 16.197L3.33153 16.3399L2.61637 17.0503L2.78866 18.0497Z" fill="white" stroke="black" stroke-width="0.161538"/>
<path d="M2.78866 26.5145L1.90067 26.045L1.01548 26.5199L1.18183 25.5194L0.462463 24.8134L1.45327 24.6644L1.89386 23.7533L2.33986 24.6617L3.33153 24.8046L2.61637 25.515L2.78866 26.5145Z" fill="white" stroke="black" stroke-width="0.161538"/>
<path d="M6.74264 30.6513L5.85465 30.1818L4.96946 30.6567L5.13581 29.6562L4.41644 28.9501L5.40725 28.8012L5.84784 27.89L6.29384 28.7985L7.28551 28.9414L6.57035 29.6518L6.74264 30.6513Z" fill="white" stroke="black" stroke-width="0.161538"/>
<path d="M6.74264 39.1945L5.85465 38.7251L4.96946 39.1999L5.13581 38.1994L4.41644 37.4934L5.40725 37.3445L5.84784 36.4333L6.29384 37.3418L7.28551 37.4846L6.57035 38.195L6.74264 39.1945Z" fill="white" stroke="black" stroke-width="0.161538"/>
<path d="M6.65768 5.39766L5.76969 4.92823L4.8845 5.40307L5.05085 4.40256L4.33148 3.69654L5.32229 3.54762L5.76288 2.63644L6.20888 3.54493L7.20055 3.6878L6.48539 4.39819L6.65768 5.39766Z" fill="white" stroke="black" stroke-width="0.161538"/>
<path d="M6.74264 13.8113L5.85465 13.3419L4.96946 13.8167L5.13581 12.8162L4.41644 12.1102L5.40725 11.9613L5.84784 11.0501L6.29384 11.9586L7.28551 12.1014L6.57035 12.8118L6.74264 13.8113Z" fill="white" stroke="black" stroke-width="0.161538"/>
<path d="M6.74264 22.2761L5.85465 21.8066L4.96946 22.2815L5.13581 21.281L4.41644 20.575L5.40725 20.426L5.84784 19.5149L6.29384 20.4233L7.28551 20.5662L6.57035 21.2766L6.74264 22.2761Z" fill="white" stroke="black" stroke-width="0.161538"/>
<path d="M10.8595 34.8897L9.97153 34.4203L9.08634 34.8951L9.25269 33.8946L8.53333 33.1886L9.52413 33.0397L9.96472 32.1285L10.4107 33.037L11.4024 33.1798L10.6872 33.8902L10.8595 34.8897Z" fill="white" stroke="black" stroke-width="0.161538"/>
<path d="M10.7745 9.6361L9.88651 9.16666L9.00132 9.6415L9.16767 8.641L8.4483 7.93498L9.43911 7.78606L9.8797 6.87488L10.3257 7.78336L11.3174 7.92623L10.6022 8.63663L10.7745 9.6361Z" fill="white" stroke="black" stroke-width="0.161538"/>
<path d="M10.8595 18.0497L9.97153 17.5803L9.08634 18.0551L9.25269 17.0546L8.53333 16.3486L9.52413 16.1997L9.96472 15.2885L10.4107 16.197L11.4024 16.3399L10.6872 17.0503L10.8595 18.0497Z" fill="white" stroke="black" stroke-width="0.161538"/>
<path d="M10.8595 26.5145L9.97153 26.045L9.08634 26.5199L9.25269 25.5194L8.53333 24.8134L9.52413 24.6644L9.96472 23.7533L10.4107 24.6617L11.4024 24.8046L10.6872 25.515L10.8595 26.5145Z" fill="white" stroke="black" stroke-width="0.161538"/>
<path d="M15.0719 30.5759L14.1839 30.1065L13.2987 30.5813L13.4651 29.5808L12.7457 28.8748L13.7365 28.7259L14.1771 27.8147L14.6231 28.7232L15.6148 28.8661L14.8996 29.5764L15.0719 30.5759Z" fill="white" stroke="black" stroke-width="0.161538"/>
<path d="M15.0719 39.1192L14.1839 38.6497L13.2987 39.1246L13.4651 38.1241L12.7457 37.418L13.7365 37.2691L14.1771 36.3579L14.6231 37.2664L15.6148 37.4093L14.8996 38.1197L15.0719 39.1192Z" fill="white" stroke="black" stroke-width="0.161538"/>
<path d="M14.987 5.32231L14.099 4.85288L13.2138 5.32772L13.3801 4.32721L12.6608 3.6212L13.6516 3.47227L14.0922 2.5611L14.5382 3.46958L15.5298 3.61245L14.8147 4.32285L14.987 5.32231Z" fill="white" stroke="black" stroke-width="0.161538"/>
<path d="M15.0719 13.736L14.1839 13.2665L13.2987 13.7414L13.4651 12.7409L12.7457 12.0349L13.7365 11.8859L14.1771 10.9748L14.6231 11.8832L15.6148 12.0261L14.8996 12.7365L15.0719 13.736Z" fill="white" stroke="black" stroke-width="0.161538"/>
<path d="M15.0719 22.2007L14.1839 21.7313L13.2987 22.2061L13.4651 21.2056L12.7457 20.4996L13.7365 20.3507L14.1771 19.4395L14.6231 20.348L15.6148 20.4909L14.8996 21.2013L15.0719 22.2007Z" fill="white" stroke="black" stroke-width="0.161538"/>
<path d="M19.1888 34.8143L18.3008 34.3449L17.4156 34.8198L17.582 33.8192L16.8626 33.1132L17.8534 32.9643L18.294 32.0531L18.74 32.9616L19.7317 33.1045L19.0165 33.8149L19.1888 34.8143Z" fill="white" stroke="black" stroke-width="0.161538"/>
<path d="M19.1038 9.56075L18.2158 9.09131L17.3306 9.56616L17.497 8.56565L16.7776 7.85963L17.7684 7.71071L18.209 6.79953L18.655 7.70801L19.6467 7.85089L18.9315 8.56128L19.1038 9.56075Z" fill="white" stroke="black" stroke-width="0.161538"/>
<path d="M19.1888 17.9744L18.3008 17.5049L17.4156 17.9798L17.582 16.9793L16.8626 16.2733L17.8534 16.1243L18.294 15.2132L18.74 16.1216L19.7317 16.2645L19.0165 16.9749L19.1888 17.9744Z" fill="white" stroke="black" stroke-width="0.161538"/>
<path d="M19.1888 26.4392L18.3008 25.9697L17.4156 26.4446L17.582 25.4441L16.8626 24.738L17.8534 24.5891L18.294 23.6779L18.74 24.5864L19.7317 24.7293L19.0165 25.4397L19.1888 26.4392Z" fill="white" stroke="black" stroke-width="0.161538"/>
<path d="M23.3145 30.5759L22.4265 30.1065L21.5413 30.5813L21.7077 29.5808L20.9883 28.8748L21.9791 28.7259L22.4197 27.8147L22.8657 28.7232L23.8573 28.8661L23.1422 29.5764L23.3145 30.5759Z" fill="white" stroke="black" stroke-width="0.161538"/>
<path d="M23.3145 39.1192L22.4265 38.6497L21.5413 39.1246L21.7077 38.1241L20.9883 37.418L21.9791 37.2691L22.4197 36.3579L22.8657 37.2664L23.8573 37.4093L23.1422 38.1197L23.3145 39.1192Z" fill="white" stroke="black" stroke-width="0.161538"/>
<path d="M23.2295 5.32231L22.3415 4.85288L21.4563 5.32772L21.6227 4.32721L20.9033 3.6212L21.8941 3.47227L22.3347 2.5611L22.7807 3.46958L23.7724 3.61245L23.0572 4.32285L23.2295 5.32231Z" fill="white" stroke="black" stroke-width="0.161538"/>
<path d="M23.3145 22.2007L22.4265 21.7313L21.5413 22.2061L21.7077 21.2056L20.9883 20.4996L21.9791 20.3507L22.4197 19.4395L22.8657 20.348L23.8573 20.4909L23.1422 21.2013L23.3145 22.2007Z" fill="white" stroke="black" stroke-width="0.161538"/>
<path d="M27.4314 34.8143L26.5434 34.3449L25.6582 34.8198L25.8245 33.8192L25.1052 33.1132L26.096 32.9643L26.5366 32.0531L26.9826 32.9616L27.9742 33.1045L27.2591 33.8149L27.4314 34.8143Z" fill="white" stroke="black" stroke-width="0.161538"/>
<path d="M27.3463 9.56075L26.4583 9.09131L25.5732 9.56616L25.7395 8.56565L25.0201 7.85963L26.0109 7.71071L26.4515 6.79953L26.8975 7.70801L27.8892 7.85089L27.174 8.56128L27.3463 9.56075Z" fill="white" stroke="black" stroke-width="0.161538"/>
<path d="M27.4314 17.9744L26.5434 17.5049L25.6582 17.9798L25.8245 16.9793L25.1052 16.2733L26.096 16.1243L26.5366 15.2132L26.9826 16.1216L27.9742 16.2645L27.2591 16.9749L27.4314 17.9744Z" fill="white" stroke="black" stroke-width="0.161538"/>
<path d="M27.4314 26.4392L26.5434 25.9697L25.6582 26.4446L25.8245 25.4441L25.1052 24.738L26.096 24.5891L26.5366 23.6779L26.9826 24.5864L27.9742 24.7293L27.2591 25.4397L27.4314 26.4392Z" fill="white" stroke="black" stroke-width="0.161538"/>
<path d="M31.5579 30.6598L30.67 30.1903L29.7848 30.6652L29.9511 29.6647L29.2318 28.9587L30.2226 28.8097L30.6631 27.8986L31.1091 28.807L32.1008 28.9499L31.3857 29.6603L31.5579 30.6598Z" fill="white" stroke="black" stroke-width="0.161538"/>
<path d="M31.5579 39.2031L30.67 38.7336L29.7848 39.2085L29.9511 38.208L29.2318 37.5019L30.2226 37.353L30.6631 36.4418L31.1091 37.3503L32.1008 37.4932L31.3857 38.2036L31.5579 39.2031Z" fill="white" stroke="black" stroke-width="0.161538"/>
<path d="M31.4729 5.40621L30.5849 4.93677L29.6997 5.41162L29.8661 4.41111L29.1467 3.70509L30.1375 3.55617L30.5781 2.64499L31.0241 3.55347L32.0158 3.69634L31.3006 4.40674L31.4729 5.40621Z" fill="white" stroke="black" stroke-width="0.161538"/>
<path d="M31.5579 13.8198L30.67 13.3504L29.7848 13.8253L29.9511 12.8247L29.2318 12.1187L30.2226 11.9698L30.6631 11.0586L31.1091 11.9671L32.1008 12.11L31.3857 12.8204L31.5579 13.8198Z" fill="white" stroke="black" stroke-width="0.161538"/>
<path d="M31.5579 22.2846L30.67 21.8152L29.7848 22.29L29.9511 21.2895L29.2318 20.5835L30.2226 20.4346L30.6631 19.5234L31.1091 20.4319L32.1008 20.5747L31.3857 21.2851L31.5579 22.2846Z" fill="white" stroke="black" stroke-width="0.161538"/>
<path d="M23.3145 13.736L22.4265 13.2665L21.5413 13.7414L21.7077 12.7409L20.9883 12.0349L21.9791 11.8859L22.4197 10.9748L22.8657 11.8832L23.8573 12.0261L23.1422 12.7365L23.3145 13.736Z" fill="white" stroke="black" stroke-width="0.161538"/>
</g>
<path d="M98.7713 22H95.4759L100.497 7.45455H104.46L109.474 22H106.179L102.536 10.7784H102.422L98.7713 22ZM98.5653 16.2827H106.349V18.6832H98.5653V16.2827ZM111.168 22V11.0909H114.052V13.0156H114.18C114.407 12.3764 114.786 11.8722 115.316 11.5028C115.846 11.1335 116.481 10.9489 117.219 10.9489C117.968 10.9489 118.604 11.1359 119.13 11.5099C119.656 11.8793 120.006 12.3812 120.181 13.0156H120.295C120.517 12.3906 120.92 11.8911 121.502 11.517C122.089 11.1383 122.783 10.9489 123.583 10.9489C124.601 10.9489 125.427 11.2732 126.062 11.9219C126.701 12.5658 127.021 13.4796 127.021 14.6634V22H124.002V15.2599C124.002 14.6539 123.841 14.1993 123.519 13.8963C123.197 13.5933 122.795 13.4418 122.312 13.4418C121.763 13.4418 121.334 13.617 121.026 13.9673C120.719 14.313 120.565 14.7699 120.565 15.3381V22H117.631V15.196C117.631 14.661 117.478 14.2348 117.17 13.9176C116.867 13.6004 116.467 13.4418 115.969 13.4418C115.633 13.4418 115.33 13.527 115.06 13.6974C114.795 13.8632 114.585 14.0975 114.428 14.4006C114.272 14.6989 114.194 15.0492 114.194 15.4517V22H111.168ZM134.382 22.2131C133.26 22.2131 132.294 21.9858 131.484 21.5312C130.679 21.072 130.059 20.4233 129.624 19.5852C129.188 18.7424 128.97 17.7457 128.97 16.5952C128.97 15.473 129.188 14.4882 129.624 13.6406C130.059 12.7931 130.672 12.1326 131.463 11.6591C132.259 11.1856 133.191 10.9489 134.261 10.9489C134.981 10.9489 135.651 11.0649 136.271 11.2969C136.896 11.5241 137.441 11.8674 137.905 12.3267C138.374 12.786 138.738 13.3636 138.999 14.0597C139.259 14.7509 139.389 15.5606 139.389 16.4886V17.3196H130.178V15.4446H136.541C136.541 15.009 136.446 14.6231 136.257 14.2869C136.068 13.9508 135.805 13.688 135.469 13.4986C135.137 13.3045 134.751 13.2074 134.311 13.2074C133.852 13.2074 133.445 13.3139 133.089 13.527C132.739 13.7353 132.464 14.017 132.266 14.3722C132.067 14.7225 131.965 15.1132 131.96 15.544V17.3267C131.96 17.8665 132.06 18.3329 132.259 18.7259C132.462 19.1188 132.749 19.4219 133.118 19.6349C133.487 19.848 133.925 19.9545 134.432 19.9545C134.768 19.9545 135.076 19.9072 135.355 19.8125C135.634 19.7178 135.874 19.5758 136.072 19.3864C136.271 19.197 136.423 18.965 136.527 18.6903L139.325 18.875C139.183 19.5473 138.892 20.1345 138.452 20.6364C138.016 21.1335 137.453 21.5218 136.761 21.8011C136.075 22.0758 135.282 22.2131 134.382 22.2131ZM141.364 22V11.0909H144.297V12.9943H144.411C144.609 12.3172 144.943 11.8059 145.412 11.4602C145.881 11.1098 146.42 10.9347 147.031 10.9347C147.183 10.9347 147.346 10.9441 147.521 10.9631C147.696 10.982 147.85 11.008 147.983 11.0412V13.7259C147.841 13.6832 147.644 13.6454 147.393 13.6122C147.143 13.5791 146.913 13.5625 146.705 13.5625C146.259 13.5625 145.862 13.6596 145.511 13.8537C145.166 14.0431 144.891 14.3082 144.688 14.6491C144.489 14.9901 144.389 15.383 144.389 15.8281V22H141.364ZM149.547 22V11.0909H152.573V22H149.547ZM151.067 9.68466C150.617 9.68466 150.231 9.53551 149.909 9.23722C149.592 8.93419 149.434 8.57197 149.434 8.15057C149.434 7.7339 149.592 7.37642 149.909 7.07812C150.231 6.77509 150.617 6.62358 151.067 6.62358C151.517 6.62358 151.9 6.77509 152.218 7.07812C152.54 7.37642 152.701 7.7339 152.701 8.15057C152.701 8.57197 152.54 8.93419 152.218 9.23722C151.9 9.53551 151.517 9.68466 151.067 9.68466ZM159.925 22.2131C158.808 22.2131 157.847 21.9763 157.042 21.5028C156.242 21.0246 155.626 20.3617 155.195 19.5142C154.769 18.6667 154.556 17.6913 154.556 16.5881C154.556 15.4706 154.772 14.4905 155.202 13.6477C155.638 12.8002 156.256 12.1397 157.056 11.6662C157.856 11.188 158.808 10.9489 159.911 10.9489C160.863 10.9489 161.696 11.1217 162.411 11.4673C163.126 11.813 163.692 12.2983 164.109 12.9233C164.525 13.5483 164.755 14.2822 164.798 15.125H161.942C161.862 14.5805 161.649 14.1425 161.303 13.8111C160.962 13.4749 160.515 13.3068 159.961 13.3068C159.492 13.3068 159.083 13.4347 158.732 13.6903C158.387 13.9413 158.117 14.3082 157.923 14.7912C157.728 15.2741 157.631 15.8589 157.631 16.5455C157.631 17.2415 157.726 17.8333 157.915 18.321C158.11 18.8087 158.382 19.1804 158.732 19.4361C159.083 19.6918 159.492 19.8196 159.961 19.8196C160.307 19.8196 160.617 19.7486 160.891 19.6065C161.171 19.4645 161.4 19.2585 161.58 18.9886C161.765 18.714 161.886 18.3849 161.942 18.0014H164.798C164.75 18.8348 164.523 19.5687 164.116 20.2031C163.713 20.8329 163.157 21.3253 162.447 21.6804C161.737 22.0355 160.896 22.2131 159.925 22.2131ZM169.846 22.206C169.15 22.206 168.529 22.0852 167.985 21.8438C167.44 21.5975 167.009 21.2353 166.692 20.7571C166.38 20.2741 166.223 19.6728 166.223 18.9531C166.223 18.3471 166.335 17.8381 166.557 17.4261C166.78 17.0142 167.083 16.6828 167.466 16.4318C167.85 16.1809 168.285 15.9915 168.773 15.8636C169.266 15.7358 169.782 15.6458 170.321 15.5938C170.956 15.5275 171.467 15.4659 171.855 15.4091C172.244 15.3475 172.525 15.2576 172.701 15.1392C172.876 15.0208 172.963 14.8456 172.963 14.6136V14.571C172.963 14.1212 172.821 13.7732 172.537 13.527C172.258 13.2808 171.86 13.1577 171.344 13.1577C170.8 13.1577 170.366 13.2784 170.044 13.5199C169.722 13.7566 169.509 14.0549 169.405 14.4148L166.607 14.1875C166.749 13.5246 167.028 12.9517 167.445 12.4688C167.862 11.9811 168.399 11.607 169.057 11.3466C169.72 11.0814 170.487 10.9489 171.358 10.9489C171.964 10.9489 172.544 11.0199 173.098 11.1619C173.657 11.304 174.152 11.5241 174.583 11.8224C175.018 12.1207 175.362 12.5043 175.613 12.973C175.864 13.437 175.989 13.9934 175.989 14.642V22H173.12V20.4872H173.034C172.859 20.8281 172.625 21.1288 172.331 21.3892C172.038 21.6449 171.685 21.8461 171.273 21.9929C170.861 22.1349 170.385 22.206 169.846 22.206ZM170.712 20.1179C171.157 20.1179 171.55 20.0303 171.891 19.8551C172.232 19.6752 172.499 19.4337 172.694 19.1307C172.888 18.8277 172.985 18.4844 172.985 18.1009V16.9432C172.89 17.0047 172.76 17.0616 172.594 17.1136C172.433 17.161 172.251 17.206 172.047 17.2486C171.844 17.2865 171.64 17.322 171.436 17.3551C171.233 17.3835 171.048 17.4096 170.882 17.4332C170.527 17.4853 170.217 17.5682 169.952 17.6818C169.687 17.7955 169.481 17.9493 169.334 18.1435C169.187 18.3329 169.114 18.5696 169.114 18.8537C169.114 19.2656 169.263 19.5805 169.561 19.7983C169.864 20.0114 170.248 20.1179 170.712 20.1179ZM181.362 15.6932V22H178.336V11.0909H181.22V13.0156H181.348C181.589 12.3812 181.994 11.8793 182.562 11.5099C183.13 11.1359 183.819 10.9489 184.629 10.9489C185.386 10.9489 186.047 11.1146 186.61 11.446C187.174 11.7775 187.612 12.2509 187.924 12.8665C188.237 13.4773 188.393 14.2064 188.393 15.054V22H185.368V15.5938C185.372 14.9261 185.202 14.4053 184.856 14.0312C184.511 13.6525 184.035 13.4631 183.429 13.4631C183.021 13.4631 182.662 13.5507 182.349 13.7259C182.041 13.901 181.8 14.1567 181.625 14.4929C181.454 14.8243 181.367 15.2244 181.362 15.6932ZM96.2642 46V31.4545H99.3395V37.456H105.582V31.4545H108.651V46H105.582V39.9915H99.3395V46H96.2642ZM116.101 46.2131C114.979 46.2131 114.013 45.9858 113.203 45.5312C112.398 45.072 111.778 44.4233 111.342 43.5852C110.907 42.7424 110.689 41.7457 110.689 40.5952C110.689 39.473 110.907 38.4882 111.342 37.6406C111.778 36.7931 112.391 36.1326 113.182 35.6591C113.977 35.1856 114.91 34.9489 115.98 34.9489C116.7 34.9489 117.37 35.0649 117.99 35.2969C118.615 35.5241 119.16 35.8674 119.624 36.3267C120.092 36.786 120.457 37.3636 120.717 38.0597C120.978 38.7509 121.108 39.5606 121.108 40.4886V41.3196H111.896V39.4446H118.26C118.26 39.009 118.165 38.6231 117.976 38.2869C117.786 37.9508 117.524 37.688 117.188 37.4986C116.856 37.3045 116.47 37.2074 116.03 37.2074C115.571 37.2074 115.163 37.3139 114.808 37.527C114.458 37.7353 114.183 38.017 113.984 38.3722C113.786 38.7225 113.684 39.1132 113.679 39.544V41.3267C113.679 41.8665 113.778 42.3329 113.977 42.7259C114.181 43.1188 114.467 43.4219 114.837 43.6349C115.206 43.848 115.644 43.9545 116.151 43.9545C116.487 43.9545 116.795 43.9072 117.074 43.8125C117.353 43.7178 117.592 43.5758 117.791 43.3864C117.99 43.197 118.142 42.965 118.246 42.6903L121.044 42.875C120.902 43.5473 120.611 44.1345 120.17 44.6364C119.735 45.1335 119.171 45.5218 118.48 45.8011C117.794 46.0758 117 46.2131 116.101 46.2131ZM126.108 31.4545V46H123.082V31.4545H126.108ZM128.532 50.0909V35.0909H131.515V36.9233H131.65C131.782 36.6297 131.974 36.3314 132.225 36.0284C132.48 35.7206 132.812 35.465 133.219 35.2614C133.631 35.053 134.142 34.9489 134.753 34.9489C135.549 34.9489 136.283 35.1572 136.955 35.5739C137.627 35.9858 138.165 36.6084 138.567 37.4418C138.97 38.2704 139.171 39.3097 139.171 40.5597C139.171 41.7765 138.974 42.804 138.581 43.642C138.193 44.4754 137.663 45.1075 136.99 45.5384C136.323 45.9645 135.575 46.1776 134.746 46.1776C134.159 46.1776 133.659 46.0805 133.248 45.8864C132.84 45.6922 132.507 45.4484 132.246 45.1548C131.986 44.8565 131.787 44.5559 131.65 44.2528H131.557V50.0909H128.532ZM131.493 40.5455C131.493 41.1941 131.583 41.7599 131.763 42.2429C131.943 42.7259 132.203 43.1023 132.544 43.3722C132.885 43.6373 133.3 43.7699 133.787 43.7699C134.28 43.7699 134.696 43.6349 135.037 43.3651C135.378 43.0904 135.636 42.7116 135.811 42.2287C135.991 41.741 136.081 41.1799 136.081 40.5455C136.081 39.9157 135.994 39.3617 135.819 38.8835C135.643 38.4053 135.385 38.0312 135.044 37.7614C134.703 37.4915 134.284 37.3565 133.787 37.3565C133.295 37.3565 132.878 37.4867 132.537 37.7472C132.201 38.0076 131.943 38.3769 131.763 38.8551C131.583 39.3333 131.493 39.8968 131.493 40.5455ZM102.074 59.0909V61.3636H95.3409V59.0909H102.074ZM96.8821 70V58.3026C96.8821 57.5118 97.036 56.8561 97.3438 56.3352C97.6562 55.8144 98.0824 55.4238 98.6222 55.1634C99.1619 54.9029 99.7751 54.7727 100.462 54.7727C100.926 54.7727 101.349 54.8082 101.733 54.8793C102.121 54.9503 102.41 55.0142 102.599 55.071L102.06 57.3438C101.941 57.3059 101.795 57.2704 101.619 57.2372C101.449 57.2041 101.274 57.1875 101.094 57.1875C100.649 57.1875 100.339 57.2917 100.163 57.5C99.9882 57.7036 99.9006 57.9901 99.9006 58.3594V70H96.8821ZM108.461 70.2131C107.357 70.2131 106.403 69.9787 105.598 69.5099C104.798 69.0365 104.18 68.3783 103.745 67.5355C103.309 66.688 103.091 65.7055 103.091 64.5881C103.091 63.4612 103.309 62.4763 103.745 61.6335C104.18 60.786 104.798 60.1278 105.598 59.6591C106.403 59.1856 107.357 58.9489 108.461 58.9489C109.564 58.9489 110.516 59.1856 111.316 59.6591C112.121 60.1278 112.741 60.786 113.176 61.6335C113.612 62.4763 113.83 63.4612 113.83 64.5881C113.83 65.7055 113.612 66.688 113.176 67.5355C112.741 68.3783 112.121 69.0365 111.316 69.5099C110.516 69.9787 109.564 70.2131 108.461 70.2131ZM108.475 67.8693C108.977 67.8693 109.396 67.7273 109.732 67.4432C110.068 67.1544 110.321 66.7614 110.492 66.2642C110.667 65.767 110.755 65.2012 110.755 64.5668C110.755 63.9323 110.667 63.3665 110.492 62.8693C110.321 62.3722 110.068 61.9792 109.732 61.6903C109.396 61.4015 108.977 61.2571 108.475 61.2571C107.968 61.2571 107.542 61.4015 107.196 61.6903C106.855 61.9792 106.597 62.3722 106.422 62.8693C106.252 63.3665 106.167 63.9323 106.167 64.5668C106.167 65.2012 106.252 65.767 106.422 66.2642C106.597 66.7614 106.855 67.1544 107.196 67.4432C107.542 67.7273 107.968 67.8693 108.475 67.8693ZM115.797 70V59.0909H118.73V60.9943H118.844C119.043 60.3172 119.377 59.8059 119.846 59.4602C120.314 59.1098 120.854 58.9347 121.465 58.9347C121.616 58.9347 121.78 58.9441 121.955 58.9631C122.13 58.982 122.284 59.008 122.417 59.0412V61.7259C122.275 61.6832 122.078 61.6454 121.827 61.6122C121.576 61.5791 121.346 61.5625 121.138 61.5625C120.693 61.5625 120.295 61.6596 119.945 61.8537C119.599 62.0431 119.325 62.3082 119.121 62.6491C118.922 62.9901 118.823 63.383 118.823 63.8281V70H115.797ZM130.478 74.0909C130.094 74.0909 129.734 74.0601 129.398 73.9986C129.067 73.9418 128.792 73.8684 128.574 73.7784L129.256 71.5199C129.611 71.6288 129.931 71.688 130.215 71.6974C130.504 71.7069 130.752 71.6406 130.961 71.4986C131.174 71.3565 131.346 71.1151 131.479 70.7741L131.657 70.3125L127.743 59.0909H130.925L133.184 67.1023H133.297L135.577 59.0909H138.78L134.54 71.179C134.337 71.7661 134.06 72.2775 133.709 72.7131C133.364 73.1534 132.926 73.492 132.395 73.7287C131.865 73.9702 131.226 74.0909 130.478 74.0909ZM144.906 70.2131C143.803 70.2131 142.849 69.9787 142.044 69.5099C141.243 69.0365 140.626 68.3783 140.19 67.5355C139.754 66.688 139.537 65.7055 139.537 64.5881C139.537 63.4612 139.754 62.4763 140.19 61.6335C140.626 60.786 141.243 60.1278 142.044 59.6591C142.849 59.1856 143.803 58.9489 144.906 58.9489C146.009 58.9489 146.961 59.1856 147.761 59.6591C148.566 60.1278 149.186 60.786 149.622 61.6335C150.057 62.4763 150.275 63.4612 150.275 64.5881C150.275 65.7055 150.057 66.688 149.622 67.5355C149.186 68.3783 148.566 69.0365 147.761 69.5099C146.961 69.9787 146.009 70.2131 144.906 70.2131ZM144.92 67.8693C145.422 67.8693 145.841 67.7273 146.177 67.4432C146.513 67.1544 146.767 66.7614 146.937 66.2642C147.112 65.767 147.2 65.2012 147.2 64.5668C147.2 63.9323 147.112 63.3665 146.937 62.8693C146.767 62.3722 146.513 61.9792 146.177 61.6903C145.841 61.4015 145.422 61.2571 144.92 61.2571C144.413 61.2571 143.987 61.4015 143.642 61.6903C143.301 61.9792 143.043 62.3722 142.868 62.8693C142.697 63.3665 142.612 63.9323 142.612 64.5668C142.612 65.2012 142.697 65.767 142.868 66.2642C143.043 66.7614 143.301 67.1544 143.642 67.4432C143.987 67.7273 144.413 67.8693 144.92 67.8693ZM159.238 65.3551V59.0909H162.264V70H159.359V68.0185H159.245C158.999 68.6577 158.59 69.1714 158.017 69.5597C157.449 69.9479 156.755 70.142 155.936 70.142C155.207 70.142 154.565 69.9763 154.011 69.6449C153.457 69.3134 153.024 68.8423 152.711 68.2315C152.404 67.6207 152.247 66.8892 152.243 66.0369V59.0909H155.268V65.4972C155.273 66.1411 155.446 66.6501 155.787 67.0241C156.127 67.3982 156.584 67.5852 157.157 67.5852C157.522 67.5852 157.863 67.5024 158.18 67.3366C158.497 67.1662 158.753 66.9152 158.947 66.5838C159.146 66.2524 159.243 65.8428 159.238 65.3551Z" fill="black"/>
<defs>
<clipPath id="clip0_2_62">
<rect width="85" height="78" fill="white"/>
</clipPath>
</defs>
</svg>
